<svg xmlns="http://www.w3.org/2000/svg" xmlns:xlink="http://www.w3.org/1999/xlink" width="1320" height="473.425" viewBox="0 0 1320 473.425">
  <defs>
    <linearGradient id="linear-gradient" x1="1.044" y1="0.13" x2="0.1" y2="0.871" gradientUnits="objectBoundingBox">
      <stop offset="0" stop-color="#ad1457"/>
      <stop offset="1" stop-color="#023055"/>
    </linearGradient>
    <clipPath id="clip-path">
      <path id="Trazado_146068" data-name="Trazado 146068" d="M0,0H1320V473.425H90c-49.706,0-90-37.626-90-84.04Z" fill="url(#linear-gradient)"/>
    </clipPath>
    <linearGradient id="linear-gradient-3" x1="1.044" y1="0.87" x2="0.1" y2="0.129" xlink:href="#linear-gradient"/>
    <linearGradient id="linear-gradient-4" x1="1.126" y1="0" x2="0.229" y2="0.618" xlink:href="#linear-gradient"/>
    <linearGradient id="linear-gradient-5" x1="-0.044" y1="0.13" x2="0.9" y2="0.871" xlink:href="#linear-gradient"/>
  </defs>
  <g id="Grupo_130316" data-name="Grupo 130316" transform="translate(12619 12862)">
    <g id="Grupo_130315" data-name="Grupo 130315">
      <g id="Grupo_130314" data-name="Grupo 130314">
        <path id="Trazado_145967" data-name="Trazado 145967" d="M0,0H1320V473.425H90c-49.706,0-90-37.626-90-84.04Z" transform="translate(-12619 -12862)" fill="url(#linear-gradient)"/>
        <g id="Enmascarar_grupo_69" data-name="Enmascarar grupo 69" transform="translate(-12619 -12862)" clip-path="url(#clip-path)">
          <g id="Grupo_130313" data-name="Grupo 130313" transform="translate(-189.781 -72.782)">
            <path id="Trazado_145968" data-name="Trazado 145968" d="M0,423.183H783.613V0H53.428C23.921,0,0,26.625,0,59.468Z" transform="translate(726.168 120.806)" opacity="0.156" fill="url(#linear-gradient-3)" style="mix-blend-mode: multiply;isolation: isolate"/>
            <path id="Rect치ngulo_34814" data-name="Rect치ngulo 34814" d="M100,0H672a0,0,0,0,1,0,0V615a0,0,0,0,1,0,0H100A100,100,0,0,1,0,515V100A100,100,0,0,1,100,0Z" transform="translate(881.781 422.781)" opacity="0.29" fill="url(#linear-gradient-4)" style="mix-blend-mode: multiply;isolation: isolate"/>
            <path id="Trazado_145969" data-name="Trazado 145969" d="M93.429,97.939H37.108v42.679h67.519v30.569H0V0H104.737V30.569H37.108v36.8H93.429Zm116.485,21.869h.659L246.693,0h49.075V171.187H258.659V60.9L258,60.786l-35.242,110.4H197.837L163.254,62.432l-.659.118V171.187H125.487V0h48.636Zm148.433-7.29v58.669H321.238V0H382.28Q410.715,0,427.4,15.52t16.688,40.8q0,25.278-16.688,40.739T382.28,112.518Zm0-30.569H382.28q12.077,0,18.444-7.113t6.368-18.283q0-11.4-6.313-18.694t-18.5-7.29H358.347Zm143.383,23.632v65.606H464.621V0h55.662q27.776,0,44.025,13.756T580.557,51.38q0,13.286-6.532,22.809t-19.268,15.52q14.712,4.468,21.134,14.873t6.423,25.925v10.817a72.836,72.836,0,0,0,1.866,15.285q1.866,8.583,6.477,12.228v2.351H552.341q-4.392-3.645-5.709-12.816a121.826,121.826,0,0,1-1.317-17.283V130.742q0-12.228-6.038-18.694T521.6,105.581Zm0-30.569H520.5q11.2,0,17.127-5.467t5.929-15.7q0-10.464-6.093-16.872t-17.182-6.408H501.729ZM608,171.187v0Z" transform="translate(1341.688 608.004) rotate(-90)" fill="#fff" opacity="0.254"/>
            <path id="Trazado_145970" data-name="Trazado 145970" d="M605.164,0H-113.47V294.14H563.245c23.151,0,41.919-18.506,41.919-41.334Z" transform="translate(303.251 72.782)" opacity="0.156" fill="url(#linear-gradient-5)" style="mix-blend-mode: multiply;isolation: isolate"/>
            <g id="Grupo_130312" data-name="Grupo 130312" transform="translate(0 187.074)" opacity="0.267">
              <g id="Grupo_130300" data-name="Grupo 130300" transform="translate(0)">
                <path id="Trazado_145971" data-name="Trazado 145971" d="M419.152,52.427a2.485,2.485,0,1,1-2.47-2.2A2.348,2.348,0,0,1,419.152,52.427Z" transform="translate(-414.214 -50.224)" fill="#fff"/>
                <path id="Trazado_145972" data-name="Trazado 145972" d="M427.6,52.427a2.485,2.485,0,1,1-2.467-2.2A2.347,2.347,0,0,1,427.6,52.427Z" transform="translate(-400.442 -50.224)" fill="#fff"/>
                <path id="Trazado_145973" data-name="Trazado 145973" d="M436.044,52.427a2.485,2.485,0,1,1-2.467-2.2A2.347,2.347,0,0,1,436.044,52.427Z" transform="translate(-386.671 -50.224)" fill="#fff"/>
                <path id="Trazado_145974" data-name="Trazado 145974" d="M444.491,52.427a2.485,2.485,0,1,1-2.47-2.2A2.348,2.348,0,0,1,444.491,52.427Z" transform="translate(-372.897 -50.224)" fill="#fff"/>
                <path id="Trazado_145975" data-name="Trazado 145975" d="M452.937,52.427a2.485,2.485,0,1,1-2.468-2.2A2.347,2.347,0,0,1,452.937,52.427Z" transform="translate(-359.125 -50.224)" fill="#fff"/>
                <path id="Trazado_145976" data-name="Trazado 145976" d="M461.382,52.427a2.485,2.485,0,1,1-2.467-2.2A2.347,2.347,0,0,1,461.382,52.427Z" transform="translate(-345.354 -50.224)" fill="#fff"/>
                <path id="Trazado_145977" data-name="Trazado 145977" d="M469.83,52.427a2.485,2.485,0,1,1-2.47-2.2A2.35,2.35,0,0,1,469.83,52.427Z" transform="translate(-331.58 -50.224)" fill="#fff"/>
                <path id="Trazado_145978" data-name="Trazado 145978" d="M478.276,52.427a2.485,2.485,0,1,1-2.468-2.2A2.347,2.347,0,0,1,478.276,52.427Z" transform="translate(-317.809 -50.224)" fill="#fff"/>
                <path id="Trazado_145979" data-name="Trazado 145979" d="M486.722,52.427a2.485,2.485,0,1,1-2.468-2.2A2.347,2.347,0,0,1,486.722,52.427Z" transform="translate(-304.037 -50.224)" fill="#fff"/>
                <path id="Trazado_145980" data-name="Trazado 145980" d="M495.169,52.427a2.485,2.485,0,1,1-2.47-2.2A2.349,2.349,0,0,1,495.169,52.427Z" transform="translate(-290.263 -50.224)" fill="#fff"/>
                <path id="Trazado_145981" data-name="Trazado 145981" d="M503.615,52.427a2.485,2.485,0,1,1-2.47-2.2A2.348,2.348,0,0,1,503.615,52.427Z" transform="translate(-276.492 -50.224)" fill="#fff"/>
              </g>
              <g id="Grupo_130301" data-name="Grupo 130301" transform="translate(0 17.637)">
                <path id="Trazado_145982" data-name="Trazado 145982" d="M419.152,59.935a2.485,2.485,0,1,1-2.47-2.2A2.348,2.348,0,0,1,419.152,59.935Z" transform="translate(-414.214 -57.732)" fill="#fff"/>
                <path id="Trazado_145983" data-name="Trazado 145983" d="M427.6,59.935a2.485,2.485,0,1,1-2.467-2.2A2.347,2.347,0,0,1,427.6,59.935Z" transform="translate(-400.442 -57.732)" fill="#fff"/>
                <path id="Trazado_145984" data-name="Trazado 145984" d="M436.044,59.935a2.485,2.485,0,1,1-2.467-2.2A2.347,2.347,0,0,1,436.044,59.935Z" transform="translate(-386.671 -57.732)" fill="#fff"/>
                <path id="Trazado_145985" data-name="Trazado 145985" d="M444.491,59.935a2.485,2.485,0,1,1-2.47-2.2A2.348,2.348,0,0,1,444.491,59.935Z" transform="translate(-372.897 -57.732)" fill="#fff"/>
                <path id="Trazado_145986" data-name="Trazado 145986" d="M452.937,59.935a2.485,2.485,0,1,1-2.468-2.2A2.347,2.347,0,0,1,452.937,59.935Z" transform="translate(-359.125 -57.732)" fill="#fff"/>
                <path id="Trazado_145987" data-name="Trazado 145987" d="M461.382,59.935a2.485,2.485,0,1,1-2.467-2.2A2.347,2.347,0,0,1,461.382,59.935Z" transform="translate(-345.354 -57.732)" fill="#fff"/>
                <path id="Trazado_145988" data-name="Trazado 145988" d="M469.83,59.935a2.485,2.485,0,1,1-2.47-2.2A2.35,2.35,0,0,1,469.83,59.935Z" transform="translate(-331.58 -57.732)" fill="#fff"/>
                <path id="Trazado_145989" data-name="Trazado 145989" d="M478.276,59.935a2.485,2.485,0,1,1-2.468-2.2A2.347,2.347,0,0,1,478.276,59.935Z" transform="translate(-317.809 -57.732)" fill="#fff"/>
                <path id="Trazado_145990" data-name="Trazado 145990" d="M486.722,59.935a2.485,2.485,0,1,1-2.468-2.2A2.347,2.347,0,0,1,486.722,59.935Z" transform="translate(-304.037 -57.732)" fill="#fff"/>
                <path id="Trazado_145991" data-name="Trazado 145991" d="M495.169,59.935a2.485,2.485,0,1,1-2.47-2.2A2.349,2.349,0,0,1,495.169,59.935Z" transform="translate(-290.263 -57.732)" fill="#fff"/>
                <path id="Trazado_145992" data-name="Trazado 145992" d="M503.615,59.935a2.485,2.485,0,1,1-2.47-2.2A2.348,2.348,0,0,1,503.615,59.935Z" transform="translate(-276.492 -57.732)" fill="#fff"/>
              </g>
              <g id="Grupo_130302" data-name="Grupo 130302" transform="translate(0 35.273)">
                <ellipse id="Elipse_4883" data-name="Elipse 4883" cx="2.469" cy="2.205" rx="2.469" ry="2.205" fill="#fff"/>
                <path id="Trazado_145993" data-name="Trazado 145993" d="M427.6,67.443a2.485,2.485,0,1,1-2.467-2.2A2.349,2.349,0,0,1,427.6,67.443Z" transform="translate(-400.442 -65.239)" fill="#fff"/>
                <ellipse id="Elipse_4884" data-name="Elipse 4884" cx="2.469" cy="2.205" rx="2.469" ry="2.205" transform="translate(44.437)" fill="#fff"/>
                <path id="Trazado_145994" data-name="Trazado 145994" d="M444.491,67.443a2.485,2.485,0,1,1-2.47-2.2A2.349,2.349,0,0,1,444.491,67.443Z" transform="translate(-372.897 -65.239)" fill="#fff"/>
                <path id="Trazado_145995" data-name="Trazado 145995" d="M452.937,67.443a2.485,2.485,0,1,1-2.468-2.2A2.349,2.349,0,0,1,452.937,67.443Z" transform="translate(-359.125 -65.239)" fill="#fff"/>
                <ellipse id="Elipse_4885" data-name="Elipse 4885" cx="2.469" cy="2.205" rx="2.469" ry="2.205" transform="translate(111.093)" fill="#fff"/>
                <path id="Trazado_145996" data-name="Trazado 145996" d="M469.83,67.443a2.485,2.485,0,1,1-2.47-2.2A2.351,2.351,0,0,1,469.83,67.443Z" transform="translate(-331.58 -65.239)" fill="#fff"/>
                <ellipse id="Elipse_4886" data-name="Elipse 4886" cx="2.469" cy="2.205" rx="2.469" ry="2.205" transform="translate(155.53)" fill="#fff"/>
                <ellipse id="Elipse_4887" data-name="Elipse 4887" cx="2.469" cy="2.205" rx="2.469" ry="2.205" transform="translate(177.749)" fill="#fff"/>
                <path id="Trazado_145997" data-name="Trazado 145997" d="M495.169,67.443a2.485,2.485,0,1,1-2.47-2.2A2.351,2.351,0,0,1,495.169,67.443Z" transform="translate(-290.263 -65.239)" fill="#fff"/>
                <path id="Trazado_145998" data-name="Trazado 145998" d="M503.615,67.443a2.485,2.485,0,1,1-2.47-2.2A2.349,2.349,0,0,1,503.615,67.443Z" transform="translate(-276.491 -65.239)" fill="#fff"/>
              </g>
              <g id="Grupo_130303" data-name="Grupo 130303" transform="translate(0 52.908)">
                <ellipse id="Elipse_4888" data-name="Elipse 4888" cx="2.469" cy="2.205" rx="2.469" ry="2.205" transform="translate(0 0.001)" fill="#fff"/>
                <path id="Trazado_145999" data-name="Trazado 145999" d="M427.6,74.953a2.484,2.484,0,1,1-2.467-2.206A2.347,2.347,0,0,1,427.6,74.953Z" transform="translate(-400.442 -72.747)" fill="#fff"/>
                <ellipse id="Elipse_4889" data-name="Elipse 4889" cx="2.469" cy="2.205" rx="2.469" ry="2.205" transform="translate(44.437 0.001)" fill="#fff"/>
                <path id="Trazado_146000" data-name="Trazado 146000" d="M444.491,74.953a2.484,2.484,0,1,1-2.47-2.206A2.348,2.348,0,0,1,444.491,74.953Z" transform="translate(-372.897 -72.747)" fill="#fff"/>
                <path id="Trazado_146001" data-name="Trazado 146001" d="M452.937,74.953a2.484,2.484,0,1,1-2.468-2.206A2.347,2.347,0,0,1,452.937,74.953Z" transform="translate(-359.125 -72.747)" fill="#fff"/>
                <ellipse id="Elipse_4890" data-name="Elipse 4890" cx="2.469" cy="2.205" rx="2.469" ry="2.205" transform="translate(111.093 0.001)" fill="#fff"/>
                <path id="Trazado_146002" data-name="Trazado 146002" d="M469.83,74.953a2.484,2.484,0,1,1-2.47-2.206A2.349,2.349,0,0,1,469.83,74.953Z" transform="translate(-331.58 -72.747)" fill="#fff"/>
                <ellipse id="Elipse_4891" data-name="Elipse 4891" cx="2.469" cy="2.205" rx="2.469" ry="2.205" transform="translate(155.53 0.001)" fill="#fff"/>
                <ellipse id="Elipse_4892" data-name="Elipse 4892" cx="2.469" cy="2.205" rx="2.469" ry="2.205" transform="translate(177.749 0.001)" fill="#fff"/>
                <path id="Trazado_146003" data-name="Trazado 146003" d="M495.169,74.953a2.484,2.484,0,1,1-2.47-2.206A2.349,2.349,0,0,1,495.169,74.953Z" transform="translate(-290.263 -72.747)" fill="#fff"/>
                <path id="Trazado_146004" data-name="Trazado 146004" d="M503.615,74.953a2.484,2.484,0,1,1-2.47-2.206A2.348,2.348,0,0,1,503.615,74.953Z" transform="translate(-276.491 -72.747)" fill="#fff"/>
              </g>
              <g id="Grupo_130304" data-name="Grupo 130304" transform="translate(0 70.545)">
                <path id="Trazado_146005" data-name="Trazado 146005" d="M419.152,82.461a2.484,2.484,0,1,1-2.47-2.206A2.348,2.348,0,0,1,419.152,82.461Z" transform="translate(-414.214 -80.255)" fill="#fff"/>
                <path id="Trazado_146006" data-name="Trazado 146006" d="M427.6,82.461a2.484,2.484,0,1,1-2.467-2.206A2.347,2.347,0,0,1,427.6,82.461Z" transform="translate(-400.442 -80.255)" fill="#fff"/>
                <path id="Trazado_146007" data-name="Trazado 146007" d="M436.044,82.461a2.484,2.484,0,1,1-2.467-2.206A2.347,2.347,0,0,1,436.044,82.461Z" transform="translate(-386.671 -80.255)" fill="#fff"/>
                <path id="Trazado_146008" data-name="Trazado 146008" d="M444.491,82.461a2.484,2.484,0,1,1-2.47-2.206A2.348,2.348,0,0,1,444.491,82.461Z" transform="translate(-372.897 -80.255)" fill="#fff"/>
                <path id="Trazado_146009" data-name="Trazado 146009" d="M452.937,82.461a2.484,2.484,0,1,1-2.468-2.206A2.347,2.347,0,0,1,452.937,82.461Z" transform="translate(-359.125 -80.255)" fill="#fff"/>
                <path id="Trazado_146010" data-name="Trazado 146010" d="M461.382,82.461a2.484,2.484,0,1,1-2.467-2.206A2.347,2.347,0,0,1,461.382,82.461Z" transform="translate(-345.354 -80.255)" fill="#fff"/>
                <path id="Trazado_146011" data-name="Trazado 146011" d="M469.83,82.461a2.484,2.484,0,1,1-2.47-2.206A2.349,2.349,0,0,1,469.83,82.461Z" transform="translate(-331.58 -80.255)" fill="#fff"/>
                <path id="Trazado_146012" data-name="Trazado 146012" d="M478.276,82.461a2.484,2.484,0,1,1-2.468-2.206A2.347,2.347,0,0,1,478.276,82.461Z" transform="translate(-317.809 -80.255)" fill="#fff"/>
                <path id="Trazado_146013" data-name="Trazado 146013" d="M486.722,82.461a2.484,2.484,0,1,1-2.468-2.206A2.347,2.347,0,0,1,486.722,82.461Z" transform="translate(-304.037 -80.255)" fill="#fff"/>
                <path id="Trazado_146014" data-name="Trazado 146014" d="M495.169,82.461a2.484,2.484,0,1,1-2.47-2.206A2.349,2.349,0,0,1,495.169,82.461Z" transform="translate(-290.263 -80.255)" fill="#fff"/>
                <path id="Trazado_146015" data-name="Trazado 146015" d="M503.615,82.461a2.484,2.484,0,1,1-2.47-2.206A2.348,2.348,0,0,1,503.615,82.461Z" transform="translate(-276.492 -80.255)" fill="#fff"/>
              </g>
              <g id="Grupo_130305" data-name="Grupo 130305" transform="translate(0 88.182)">
                <ellipse id="Elipse_4893" data-name="Elipse 4893" cx="2.469" cy="2.205" rx="2.469" ry="2.205" transform="translate(0 0)" fill="#fff"/>
                <path id="Trazado_146016" data-name="Trazado 146016" d="M427.6,89.969a2.484,2.484,0,1,1-2.467-2.206A2.347,2.347,0,0,1,427.6,89.969Z" transform="translate(-400.442 -87.763)" fill="#fff"/>
                <ellipse id="Elipse_4894" data-name="Elipse 4894" cx="2.469" cy="2.205" rx="2.469" ry="2.205" transform="translate(44.437 0)" fill="#fff"/>
                <path id="Trazado_146017" data-name="Trazado 146017" d="M444.491,89.969a2.484,2.484,0,1,1-2.47-2.206A2.348,2.348,0,0,1,444.491,89.969Z" transform="translate(-372.897 -87.763)" fill="#fff"/>
                <path id="Trazado_146018" data-name="Trazado 146018" d="M452.937,89.969a2.484,2.484,0,1,1-2.468-2.206A2.347,2.347,0,0,1,452.937,89.969Z" transform="translate(-359.125 -87.763)" fill="#fff"/>
                <ellipse id="Elipse_4895" data-name="Elipse 4895" cx="2.469" cy="2.205" rx="2.469" ry="2.205" transform="translate(111.093 0)" fill="#fff"/>
                <path id="Trazado_146019" data-name="Trazado 146019" d="M469.83,89.969a2.484,2.484,0,1,1-2.47-2.206A2.349,2.349,0,0,1,469.83,89.969Z" transform="translate(-331.58 -87.763)" fill="#fff"/>
                <ellipse id="Elipse_4896" data-name="Elipse 4896" cx="2.469" cy="2.205" rx="2.469" ry="2.205" transform="translate(155.53 0)" fill="#fff"/>
                <ellipse id="Elipse_4897" data-name="Elipse 4897" cx="2.469" cy="2.205" rx="2.469" ry="2.205" transform="translate(177.749 0)" fill="#fff"/>
                <path id="Trazado_146020" data-name="Trazado 146020" d="M495.169,89.969a2.484,2.484,0,1,1-2.47-2.206A2.349,2.349,0,0,1,495.169,89.969Z" transform="translate(-290.263 -87.763)" fill="#fff"/>
                <path id="Trazado_146021" data-name="Trazado 146021" d="M503.615,89.969a2.484,2.484,0,1,1-2.47-2.206A2.348,2.348,0,0,1,503.615,89.969Z" transform="translate(-276.491 -87.763)" fill="#fff"/>
              </g>
              <g id="Grupo_130306" data-name="Grupo 130306" transform="translate(0 105.819)">
                <ellipse id="Elipse_4898" data-name="Elipse 4898" cx="2.469" cy="2.205" rx="2.469" ry="2.205" fill="#fff"/>
                <path id="Trazado_146022" data-name="Trazado 146022" d="M427.6,97.474a2.485,2.485,0,1,1-2.467-2.2A2.347,2.347,0,0,1,427.6,97.474Z" transform="translate(-400.442 -95.271)" fill="#fff"/>
                <ellipse id="Elipse_4899" data-name="Elipse 4899" cx="2.469" cy="2.205" rx="2.469" ry="2.205" transform="translate(44.437)" fill="#fff"/>
                <path id="Trazado_146023" data-name="Trazado 146023" d="M444.491,97.474a2.485,2.485,0,1,1-2.47-2.2A2.348,2.348,0,0,1,444.491,97.474Z" transform="translate(-372.897 -95.271)" fill="#fff"/>
                <path id="Trazado_146024" data-name="Trazado 146024" d="M452.937,97.474a2.485,2.485,0,1,1-2.468-2.2A2.347,2.347,0,0,1,452.937,97.474Z" transform="translate(-359.125 -95.271)" fill="#fff"/>
                <ellipse id="Elipse_4900" data-name="Elipse 4900" cx="2.469" cy="2.205" rx="2.469" ry="2.205" transform="translate(111.093)" fill="#fff"/>
                <path id="Trazado_146025" data-name="Trazado 146025" d="M469.83,97.474a2.485,2.485,0,1,1-2.47-2.2A2.35,2.35,0,0,1,469.83,97.474Z" transform="translate(-331.58 -95.271)" fill="#fff"/>
                <ellipse id="Elipse_4901" data-name="Elipse 4901" cx="2.469" cy="2.205" rx="2.469" ry="2.205" transform="translate(155.53)" fill="#fff"/>
                <ellipse id="Elipse_4902" data-name="Elipse 4902" cx="2.469" cy="2.205" rx="2.469" ry="2.205" transform="translate(177.749)" fill="#fff"/>
                <path id="Trazado_146026" data-name="Trazado 146026" d="M495.169,97.474a2.485,2.485,0,1,1-2.47-2.2A2.35,2.35,0,0,1,495.169,97.474Z" transform="translate(-290.263 -95.271)" fill="#fff"/>
                <path id="Trazado_146027" data-name="Trazado 146027" d="M503.615,97.474a2.485,2.485,0,1,1-2.47-2.2A2.348,2.348,0,0,1,503.615,97.474Z" transform="translate(-276.491 -95.271)" fill="#fff"/>
              </g>
              <g id="Grupo_130307" data-name="Grupo 130307" transform="translate(0 123.456)">
                <path id="Trazado_146028" data-name="Trazado 146028" d="M419.152,104.982a2.485,2.485,0,1,1-2.47-2.2A2.348,2.348,0,0,1,419.152,104.982Z" transform="translate(-414.214 -102.779)" fill="#fff"/>
                <path id="Trazado_146029" data-name="Trazado 146029" d="M427.6,104.982a2.485,2.485,0,1,1-2.467-2.2A2.347,2.347,0,0,1,427.6,104.982Z" transform="translate(-400.442 -102.779)" fill="#fff"/>
                <path id="Trazado_146030" data-name="Trazado 146030" d="M436.044,104.982a2.485,2.485,0,1,1-2.467-2.2A2.347,2.347,0,0,1,436.044,104.982Z" transform="translate(-386.671 -102.779)" fill="#fff"/>
                <path id="Trazado_146031" data-name="Trazado 146031" d="M444.491,104.982a2.485,2.485,0,1,1-2.47-2.2A2.348,2.348,0,0,1,444.491,104.982Z" transform="translate(-372.897 -102.779)" fill="#fff"/>
                <path id="Trazado_146032" data-name="Trazado 146032" d="M452.937,104.982a2.485,2.485,0,1,1-2.468-2.2A2.347,2.347,0,0,1,452.937,104.982Z" transform="translate(-359.125 -102.779)" fill="#fff"/>
                <path id="Trazado_146033" data-name="Trazado 146033" d="M461.382,104.982a2.485,2.485,0,1,1-2.467-2.2A2.347,2.347,0,0,1,461.382,104.982Z" transform="translate(-345.354 -102.779)" fill="#fff"/>
                <path id="Trazado_146034" data-name="Trazado 146034" d="M469.83,104.982a2.485,2.485,0,1,1-2.47-2.2A2.35,2.35,0,0,1,469.83,104.982Z" transform="translate(-331.58 -102.779)" fill="#fff"/>
                <path id="Trazado_146035" data-name="Trazado 146035" d="M478.276,104.982a2.485,2.485,0,1,1-2.468-2.2A2.347,2.347,0,0,1,478.276,104.982Z" transform="translate(-317.809 -102.779)" fill="#fff"/>
                <path id="Trazado_146036" data-name="Trazado 146036" d="M486.722,104.982a2.485,2.485,0,1,1-2.468-2.2A2.347,2.347,0,0,1,486.722,104.982Z" transform="translate(-304.037 -102.779)" fill="#fff"/>
                <path id="Trazado_146037" data-name="Trazado 146037" d="M495.169,104.982a2.485,2.485,0,1,1-2.47-2.2A2.35,2.35,0,0,1,495.169,104.982Z" transform="translate(-290.263 -102.779)" fill="#fff"/>
                <path id="Trazado_146038" data-name="Trazado 146038" d="M503.615,104.982a2.485,2.485,0,1,1-2.47-2.2A2.348,2.348,0,0,1,503.615,104.982Z" transform="translate(-276.492 -102.779)" fill="#fff"/>
              </g>
              <g id="Grupo_130308" data-name="Grupo 130308" transform="translate(0 141.092)">
                <ellipse id="Elipse_4903" data-name="Elipse 4903" cx="2.469" cy="2.205" rx="2.469" ry="2.205" fill="#fff"/>
                <path id="Trazado_146039" data-name="Trazado 146039" d="M427.6,112.49a2.485,2.485,0,1,1-2.467-2.2A2.349,2.349,0,0,1,427.6,112.49Z" transform="translate(-400.442 -110.286)" fill="#fff"/>
                <ellipse id="Elipse_4904" data-name="Elipse 4904" cx="2.469" cy="2.205" rx="2.469" ry="2.205" transform="translate(44.437)" fill="#fff"/>
                <path id="Trazado_146040" data-name="Trazado 146040" d="M444.491,112.49a2.485,2.485,0,1,1-2.47-2.2A2.349,2.349,0,0,1,444.491,112.49Z" transform="translate(-372.897 -110.286)" fill="#fff"/>
                <path id="Trazado_146041" data-name="Trazado 146041" d="M452.937,112.49a2.485,2.485,0,1,1-2.468-2.2A2.349,2.349,0,0,1,452.937,112.49Z" transform="translate(-359.125 -110.286)" fill="#fff"/>
                <ellipse id="Elipse_4905" data-name="Elipse 4905" cx="2.469" cy="2.205" rx="2.469" ry="2.205" transform="translate(111.093)" fill="#fff"/>
                <path id="Trazado_146042" data-name="Trazado 146042" d="M469.83,112.49a2.485,2.485,0,1,1-2.47-2.2A2.351,2.351,0,0,1,469.83,112.49Z" transform="translate(-331.58 -110.286)" fill="#fff"/>
                <ellipse id="Elipse_4906" data-name="Elipse 4906" cx="2.469" cy="2.205" rx="2.469" ry="2.205" transform="translate(155.53)" fill="#fff"/>
                <ellipse id="Elipse_4907" data-name="Elipse 4907" cx="2.469" cy="2.205" rx="2.469" ry="2.205" transform="translate(177.749)" fill="#fff"/>
                <path id="Trazado_146043" data-name="Trazado 146043" d="M495.169,112.49a2.485,2.485,0,1,1-2.47-2.2A2.351,2.351,0,0,1,495.169,112.49Z" transform="translate(-290.263 -110.286)" fill="#fff"/>
                <path id="Trazado_146044" data-name="Trazado 146044" d="M503.615,112.49a2.485,2.485,0,1,1-2.47-2.2A2.349,2.349,0,0,1,503.615,112.49Z" transform="translate(-276.491 -110.286)" fill="#fff"/>
              </g>
              <g id="Grupo_130309" data-name="Grupo 130309" transform="translate(0 158.727)">
                <path id="Trazado_146045" data-name="Trazado 146045" d="M419.152,120a2.484,2.484,0,1,1-2.47-2.206A2.35,2.35,0,0,1,419.152,120Z" transform="translate(-414.214 -117.794)" fill="#fff"/>
                <path id="Trazado_146046" data-name="Trazado 146046" d="M427.6,120a2.484,2.484,0,1,1-2.467-2.206A2.349,2.349,0,0,1,427.6,120Z" transform="translate(-400.442 -117.794)" fill="#fff"/>
                <path id="Trazado_146047" data-name="Trazado 146047" d="M436.044,120a2.484,2.484,0,1,1-2.467-2.206A2.349,2.349,0,0,1,436.044,120Z" transform="translate(-386.671 -117.794)" fill="#fff"/>
                <path id="Trazado_146048" data-name="Trazado 146048" d="M444.491,120a2.484,2.484,0,1,1-2.47-2.206A2.349,2.349,0,0,1,444.491,120Z" transform="translate(-372.897 -117.794)" fill="#fff"/>
                <path id="Trazado_146049" data-name="Trazado 146049" d="M452.937,120a2.484,2.484,0,1,1-2.468-2.206A2.349,2.349,0,0,1,452.937,120Z" transform="translate(-359.125 -117.794)" fill="#fff"/>
                <path id="Trazado_146050" data-name="Trazado 146050" d="M461.382,120a2.484,2.484,0,1,1-2.467-2.206A2.348,2.348,0,0,1,461.382,120Z" transform="translate(-345.354 -117.794)" fill="#fff"/>
                <path id="Trazado_146051" data-name="Trazado 146051" d="M469.83,120a2.484,2.484,0,1,1-2.47-2.206A2.351,2.351,0,0,1,469.83,120Z" transform="translate(-331.58 -117.794)" fill="#fff"/>
                <path id="Trazado_146052" data-name="Trazado 146052" d="M478.276,120a2.484,2.484,0,1,1-2.468-2.206A2.349,2.349,0,0,1,478.276,120Z" transform="translate(-317.809 -117.794)" fill="#fff"/>
                <path id="Trazado_146053" data-name="Trazado 146053" d="M486.722,120a2.484,2.484,0,1,1-2.468-2.206A2.349,2.349,0,0,1,486.722,120Z" transform="translate(-304.037 -117.794)" fill="#fff"/>
                <path id="Trazado_146054" data-name="Trazado 146054" d="M495.169,120a2.484,2.484,0,1,1-2.47-2.206A2.351,2.351,0,0,1,495.169,120Z" transform="translate(-290.263 -117.794)" fill="#fff"/>
                <path id="Trazado_146055" data-name="Trazado 146055" d="M503.615,120a2.484,2.484,0,1,1-2.47-2.206A2.349,2.349,0,0,1,503.615,120Z" transform="translate(-276.492 -117.794)" fill="#fff"/>
              </g>
              <g id="Grupo_130310" data-name="Grupo 130310" transform="translate(0 176.364)">
                <ellipse id="Elipse_4908" data-name="Elipse 4908" cx="2.469" cy="2.205" rx="2.469" ry="2.205" transform="translate(0 0.001)" fill="#fff"/>
                <path id="Trazado_146056" data-name="Trazado 146056" d="M427.6,127.508a2.484,2.484,0,1,1-2.467-2.206A2.347,2.347,0,0,1,427.6,127.508Z" transform="translate(-400.442 -125.302)" fill="#fff"/>
                <ellipse id="Elipse_4909" data-name="Elipse 4909" cx="2.469" cy="2.205" rx="2.469" ry="2.205" transform="translate(44.437 0.001)" fill="#fff"/>
                <path id="Trazado_146057" data-name="Trazado 146057" d="M444.491,127.508a2.484,2.484,0,1,1-2.47-2.206A2.348,2.348,0,0,1,444.491,127.508Z" transform="translate(-372.897 -125.302)" fill="#fff"/>
                <path id="Trazado_146058" data-name="Trazado 146058" d="M452.937,127.508a2.484,2.484,0,1,1-2.468-2.206A2.347,2.347,0,0,1,452.937,127.508Z" transform="translate(-359.125 -125.302)" fill="#fff"/>
                <ellipse id="Elipse_4910" data-name="Elipse 4910" cx="2.469" cy="2.205" rx="2.469" ry="2.205" transform="translate(111.093 0.001)" fill="#fff"/>
                <path id="Trazado_146059" data-name="Trazado 146059" d="M469.83,127.508a2.484,2.484,0,1,1-2.47-2.206A2.349,2.349,0,0,1,469.83,127.508Z" transform="translate(-331.58 -125.302)" fill="#fff"/>
                <ellipse id="Elipse_4911" data-name="Elipse 4911" cx="2.469" cy="2.205" rx="2.469" ry="2.205" transform="translate(155.53 0.001)" fill="#fff"/>
                <ellipse id="Elipse_4912" data-name="Elipse 4912" cx="2.469" cy="2.205" rx="2.469" ry="2.205" transform="translate(177.749 0.001)" fill="#fff"/>
                <path id="Trazado_146060" data-name="Trazado 146060" d="M495.169,127.508a2.484,2.484,0,1,1-2.47-2.206A2.349,2.349,0,0,1,495.169,127.508Z" transform="translate(-290.263 -125.302)" fill="#fff"/>
                <path id="Trazado_146061" data-name="Trazado 146061" d="M503.615,127.508a2.484,2.484,0,1,1-2.47-2.206A2.348,2.348,0,0,1,503.615,127.508Z" transform="translate(-276.491 -125.302)" fill="#fff"/>
              </g>
              <g id="Grupo_130311" data-name="Grupo 130311" transform="translate(0 194.001)">
                <ellipse id="Elipse_4913" data-name="Elipse 4913" cx="2.469" cy="2.205" rx="2.469" ry="2.205" transform="translate(0 0)" fill="#fff"/>
                <path id="Trazado_146062" data-name="Trazado 146062" d="M427.6,135.016a2.484,2.484,0,1,1-2.467-2.206A2.347,2.347,0,0,1,427.6,135.016Z" transform="translate(-400.442 -132.81)" fill="#fff"/>
                <ellipse id="Elipse_4914" data-name="Elipse 4914" cx="2.469" cy="2.205" rx="2.469" ry="2.205" transform="translate(44.437 0)" fill="#fff"/>
                <path id="Trazado_146063" data-name="Trazado 146063" d="M444.491,135.016a2.484,2.484,0,1,1-2.47-2.206A2.348,2.348,0,0,1,444.491,135.016Z" transform="translate(-372.897 -132.81)" fill="#fff"/>
                <path id="Trazado_146064" data-name="Trazado 146064" d="M452.937,135.016a2.484,2.484,0,1,1-2.468-2.206A2.347,2.347,0,0,1,452.937,135.016Z" transform="translate(-359.125 -132.81)" fill="#fff"/>
                <ellipse id="Elipse_4915" data-name="Elipse 4915" cx="2.469" cy="2.205" rx="2.469" ry="2.205" transform="translate(111.093 0)" fill="#fff"/>
                <path id="Trazado_146065" data-name="Trazado 146065" d="M469.83,135.016a2.484,2.484,0,1,1-2.47-2.206A2.349,2.349,0,0,1,469.83,135.016Z" transform="translate(-331.58 -132.81)" fill="#fff"/>
                <ellipse id="Elipse_4916" data-name="Elipse 4916" cx="2.469" cy="2.205" rx="2.469" ry="2.205" transform="translate(155.53 0)" fill="#fff"/>
                <ellipse id="Elipse_4917" data-name="Elipse 4917" cx="2.469" cy="2.205" rx="2.469" ry="2.205" transform="translate(177.749 0)" fill="#fff"/>
                <path id="Trazado_146066" data-name="Trazado 146066" d="M495.169,135.016a2.484,2.484,0,1,1-2.47-2.206A2.349,2.349,0,0,1,495.169,135.016Z" transform="translate(-290.263 -132.81)" fill="#fff"/>
                <path id="Trazado_146067" data-name="Trazado 146067" d="M503.615,135.016a2.484,2.484,0,1,1-2.47-2.206A2.348,2.348,0,0,1,503.615,135.016Z" transform="translate(-276.491 -132.81)" fill="#fff"/>
              </g>
            </g>
          </g>
        </g>
      </g>
    </g>
    <rect id="Rect치ngulo_34815" data-name="Rect치ngulo 34815" width="95" height="95" transform="translate(-12619 -12484)" fill="#023055"/>
  </g>
</svg>
